<svg width="800" height="400" viewBox="0 0 800 400" fill="none" xmlns="http://www.w3.org/2000/svg">
  <rect width="800" height="400" fill="#F8F9FA"/>
  <rect x="150" y="50" width="500" height="300" rx="20" fill="white" stroke="#E9ECEF" stroke-width="2"/>
  
  <!-- Заголовок -->
  <text x="400" y="100" font-family="Arial, sans-serif" font-size="32" font-weight="bold" text-anchor="middle" fill="#2678B6">ТНДР - Умный помощник по тендерам</text>
  
  <!-- Таб-бар -->
  <rect x="150" y="300" width="500" height="50" fill="white" stroke="#E9ECEF" stroke-width="2"/>
  
  <!-- Иконки таб-бара -->
  <g transform="translate(200, 325)">
    <circle cx="0" cy="0" r="15" fill="#2678B6" opacity="0.1"/>
    <path d="M7 0C7 3.86599 3.86599 7 0 7C-3.86599 7 -7 3.86599 -7 0C-7 -3.86599 -3.86599 -7 0 -7C3.86599 -7 7 -3.86599 7 0Z" stroke="#2678B6" stroke-width="2"/>
    <path d="M-4 -1L-2 1L4 -3" stroke="#2678B6" stroke-width="2" stroke-linecap="round" stroke-linejoin="round"/>
  </g>
  
  <g transform="translate(300, 325)">
    <circle cx="0" cy="0" r="15" fill="#2678B6" opacity="0.1"/>
    <path d="M-5 -5L5 5M5 -5L-5 5" stroke="#2678B6" stroke-width="2" stroke-linecap="round"/>
  </g>
  
  <g transform="translate(400, 325)">
    <circle cx="0" cy="0" r="15" fill="#2678B6" opacity="0.1"/>
    <rect x="-5" y="-7" width="10" height="14" rx="1" stroke="#2678B6" stroke-width="2"/>
    <line x1="-2" y1="2" x2="2" y2="2" stroke="#2678B6" stroke-width="2" stroke-linecap="round"/>
    <line x1="0" y1="2" x2="0" y2="6" stroke="#2678B6" stroke-width="2" stroke-linecap="round"/>
  </g>
  
  <g transform="translate(500, 325)">
    <circle cx="0" cy="0" r="15" fill="#2678B6" opacity="0.1"/>
    <circle cx="-6" cy="-2" r="3" stroke="#2678B6" stroke-width="2"/>
    <circle cx="6" cy="-2" r="3" stroke="#2678B6" stroke-width="2"/>
    <path d="M-4 4C-4 6 -2 7 0 7C2 7 4 6 4 4" stroke="#2678B6" stroke-width="2" stroke-linecap="round"/>
  </g>
  
  <g transform="translate(600, 325)">
    <circle cx="0" cy="0" r="15" fill="#2678B6" opacity="0.1"/>
    <circle cx="0" cy="-3" r="5" stroke="#2678B6" stroke-width="2"/>
    <path d="M-6 7C-6 3 -3 1 0 1C3 1 6 3 6 7" stroke="#2678B6" stroke-width="2"/>
  </g>
  
  <!-- Контент -->
  <rect x="200" y="150" width="400" height="80" rx="10" fill="#F8F9FA" stroke="#E9ECEF" stroke-width="2"/>
  <rect x="220" y="170" width="150" height="12" rx="6" fill="#2678B6" opacity="0.7"/>
  <rect x="220" y="190" width="250" height="10" rx="5" fill="#ADB5BD" opacity="0.4"/>
  <rect x="220" y="210" width="200" height="10" rx="5" fill="#ADB5BD" opacity="0.4"/>
  
  <rect x="200" y="250" width="190" height="80" rx="10" fill="#F8F9FA" stroke="#E9ECEF" stroke-width="2"/>
  <rect x="220" y="270" width="100" height="12" rx="6" fill="#2678B6" opacity="0.7"/>
  <rect x="220" y="290" width="150" height="10" rx="5" fill="#ADB5BD" opacity="0.4"/>
  <rect x="220" y="310" width="120" height="10" rx="5" fill="#ADB5BD" opacity="0.4"/>
  
  <rect x="410" y="250" width="190" height="80" rx="10" fill="#F8F9FA" stroke="#E9ECEF" stroke-width="2"/>
  <rect x="430" y="270" width="100" height="12" rx="6" fill="#2678B6" opacity="0.7"/>
  <rect x="430" y="290" width="150" height="10" rx="5" fill="#ADB5BD" opacity="0.4"/>
  <rect x="430" y="310" width="120" height="10" rx="5" fill="#ADB5BD" opacity="0.4"/>
</svg> 